<svg height="160" width="804"><g transform="translate(20, 30)"><g class="dummy-layer" /><g class="main-layer" transform="translate(0, 0)"><g><line class="timeline" style="stroke-width: 2px; stroke: #222;" x2="764" /></g><g class="axis-layer"><g class="tick" style="opacity: 1;" transform="translate(0.0000000000000000, 0)"><line style="stroke-width: 1px; stroke: #222;" x2="0" y2="-6" /><text dy="0em" style="text-anchor: middle;" x="0" y="-9">Fri 23</text></g><g class="tick" style="opacity: 1;" transform="translate(50.9333333333333300, 0)"><line style="stroke-width: 1px; stroke: #222;" x2="0" y2="-6" /><text dy="0em" style="text-anchor: middle;" x="0" y="-9">Apr 25</text></g><g class="tick" style="opacity: 1;" transform="translate(101.8666666666666600, 0)"><line style="stroke-width: 1px; stroke: #222;" x2="0" y2="-6" /><text dy="0em" style="text-anchor: middle;" x="0" y="-9">Tue 27</text></g><g class="tick" style="opacity: 1;" transform="translate(152.8000000000000114, 0)"><line style="stroke-width: 1px; stroke: #222;" x2="0" y2="-6" /><text dy="0em" style="text-anchor: middle;" x="0" y="-9">Thu 29</text></g><g class="tick" style="opacity: 1;" transform="translate(203.7333333333333201, 0)"><line style="stroke-width: 1px; stroke: #222;" x2="0" y2="-6" /><text dy="0em" style="text-anchor: middle;" x="0" y="-9">May</text></g><g class="tick" style="opacity: 1;" transform="translate(254.6666666666666572, 0)"><line style="stroke-width: 1px; stroke: #222;" x2="0" y2="-6" /><text dy="0em" style="text-anchor: middle;" x="0" y="-9">Mon 03</text></g><g class="tick" style="opacity: 1;" transform="translate(305.6000000000000227, 0)"><line style="stroke-width: 1px; stroke: #222;" x2="0" y2="-6" /><text dy="0em" style="text-anchor: middle;" x="0" y="-9">Wed 05</text></g><g class="tick" style="opacity: 1;" transform="translate(356.5333333333333599, 0)"><line style="stroke-width: 1px; stroke: #222;" x2="0" y2="-6" /><text dy="0em" style="text-anchor: middle;" x="0" y="-9">Fri 07</text></g><g class="tick" style="opacity: 1;" transform="translate(407.4666666666666401, 0)"><line style="stroke-width: 1px; stroke: #222;" x2="0" y2="-6" /><text dy="0em" style="text-anchor: middle;" x="0" y="-9">May 09</text></g><g class="tick" style="opacity: 1;" transform="translate(458.3999999999999773, 0)"><line style="stroke-width: 1px; stroke: #222;" x2="0" y2="-6" /><text dy="0em" style="text-anchor: middle;" x="0" y="-9">Tue 11</text></g><g class="tick" style="opacity: 1;" transform="translate(509.3333333333333144, 0)"><line style="stroke-width: 1px; stroke: #222;" x2="0" y2="-6" /><text dy="0em" style="text-anchor: middle;" x="0" y="-9">Thu 13</text></g><g class="tick" style="opacity: 1;" transform="translate(560.2666666666666515, 0)"><line style="stroke-width: 1px; stroke: #222;" x2="0" y2="-6" /><text dy="0em" style="text-anchor: middle;" x="0" y="-9">Sat 15</text></g><g class="tick" style="opacity: 1;" transform="translate(611.2000000000000455, 0)"><line style="stroke-width: 1px; stroke: #222;" x2="0" y2="-6" /><text dy="0em" style="text-anchor: middle;" x="0" y="-9">Mon 17</text></g><g class="tick" style="opacity: 1;" transform="translate(662.1333333333333258, 0)"><line style="stroke-width: 1px; stroke: #222;" x2="0" y2="-6" /><text dy="0em" style="text-anchor: middle;" x="0" y="-9">Wed 19</text></g><g class="tick" style="opacity: 1;" transform="translate(713.0666666666667197, 0)"><line style="stroke-width: 1px; stroke: #222;" x2="0" y2="-6" /><text dy="0em" style="text-anchor: middle;" x="0" y="-9">Fri 21</text></g><g class="tick" style="opacity: 1;" transform="translate(764.0000000000000000, 0)"><line style="stroke-width: 1px; stroke: #222;" x2="0" y2="-6" /><text dy="0em" style="text-anchor: middle;" x="0" y="-9">May 23</text></g></g><g class="link-layer"><path class="link" d="M 764.00000000 0.00000000 C 764.00000000 20.00000000 733.00000000 20.00000000 733.00000000 40.00000000" style="stroke: rgb(31, 119, 180); stroke-width: 2; fill: none;" /><path class="link" d="M 25.46666667 0.00000000 C 25.46666667 20.00000000 25.00000000 20.00000000 25.00000000 40.00000000" style="stroke: rgb(255, 127, 14); stroke-width: 2; fill: none;" /><path class="link" d="M 534.80000000 0.00000000 C 534.80000000 20.00000000 535.00000000 20.00000000 535.00000000 40.00000000" style="stroke: rgb(44, 160, 44); stroke-width: 2; fill: none;" /><path class="link" d="M 432.93333333 0.00000000 C 432.93333333 20.00000000 433.00000000 20.00000000 433.00000000 40.00000000" style="stroke: rgb(214, 39, 40); stroke-width: 2; fill: none;" /></g><g class="label-layer"><g class="label-g" transform="translate(666, 40)"><rect class="label-bg" height="16.0" rx="2" ry="2" style="fill:rgb(31, 119, 180);" width="134" /><text class="label-text" dx="0.15em" dy="0.85em" style="fill: rgb(255, 255, 255);" x="0" y="1">Probable Versity Opening</text></g><g class="label-g" transform="translate(9, 40)"><rect class="label-bg" height="16.0" rx="2" ry="2" style="fill:rgb(255, 127, 14);" width="32" /><text class="label-text" dx="0.15em" dy="0.85em" style="fill: rgb(255, 255, 255);" x="0" y="1">Today</text></g><g class="label-g" transform="translate(482, 40)"><rect class="label-bg" height="16.0" rx="2" ry="2" style="fill:rgb(44, 160, 44);" width="106" /><text class="label-text" dx="0.15em" dy="0.85em" style="fill: rgb(255, 255, 255);" x="0" y="1">Probable Eid ul-Fitr</text></g><g class="label-g" transform="translate(394, 40)"><rect class="label-bg" height="16.0" rx="2" ry="2" style="fill:rgb(214, 39, 40);" width="77" /><text class="label-text" dx="0.15em" dy="0.85em" style="fill: rgb(255, 255, 255);" x="0" y="1">Thesis Defense</text></g></g><g class="dot-layer"><circle class="dot" cx="764.0" r="3" style="fill: rgb(31, 119, 180);" /><circle class="dot" cx="25.466666666666665" r="3" style="fill: rgb(255, 127, 14);" /><circle class="dot" cx="534.8" r="3" style="fill: rgb(44, 160, 44);" /><circle class="dot" cx="432.93333333333334" r="3" style="fill: rgb(214, 39, 40);" /></g></g></g></svg>